#!OML:ASF C:\ViconDB\ViconDB\414\Spring2016\042216\male.ASF
:FULLY-SPECIFIED
:DEGREES
635
root 47.1008 17.5768 12.6428 190.966 85.9051 188.206
lowerback -5.7105 -1.45094 3.1937
upperback -0.805916 -2.10298 -0.425867
thorax 2.23817 -1.01501 -2.38651
lowerneck 0.636337 13.8341 1.34214
upperneck -3.17606 18.4643 -9.84914
head 0.0119603 9.36436 -3.21803
rclavicle 3.179e-015 2.03754e-015
rhumerus -33.4181 -7.29864 -89.7658
rradius 31.6149
rwrist 34.435
rhand 24.2072 -15.9013
rfingers 7.12502
rthumb 48.4323 -37.9098
lclavicle 3.179e-015 2.03754e-015
lhumerus -41.5396 20.7698 78.8061
lradius 28.4605
lwrist -23.8933
lhand -5.89684 11.9844
lfingers 7.12502
lthumb 19.9315 40.9822
rfemur -7.11517 9.62346 23.7524
rtibia 27.6407
rfoot -22.5603 -10.566
rtoes 0.340487
lfemur -7.5654 -4.81469 -21.1626
ltibia 31.0971
lfoot -28.6766 17.657
ltoes -13.4612
636
root 47.0942 17.5777 12.6409 190.765 85.8256 188.016
lowerback -5.68085 -1.4251 3.23936
upperback -0.790629 -2.07062 -0.437948
thorax 2.23736 -0.998435 -2.42164
lowerneck 0.797297 13.9858 1.38099
upperneck -3.34437 18.6541 -9.87255
head -0.0515026 9.46705 -3.24811
rclavicle 9.84178e-015 -4.96962e-015
rhumerus -33.4384 -7.88449 -89.5472
rradius 31.6932
rwrist 34.5919
rhand 25.7387 -15.8304
rfingers 7.12502
rthumb 49.8385 -37.1376
lclavicle 9.84178e-015 -4.96962e-015
lhumerus -41.4888 20.5803 79.0155
lradius 28.6461
lwrist -23.4817
lhand -5.87881 12.0319
lfingers 7.12502
lthumb 19.9488 41.0279
rfemur -7.0954 9.97064 23.7883
rtibia 27.6391
rfoot -22.623 -10.9989
rtoes 0.324308
lfemur -7.60119 -4.60051 -21.1351
ltibia 31.0885
lfoot -28.6834 17.3758
ltoes -13.3993
637
root 47.0866 17.5771 12.6398 190.679 85.7374 187.969
lowerback -5.62423 -1.42735 3.24594
upperback -0.793811 -2.07213 -0.437342
thorax 2.20211 -0.999914 -2.42293
lowerneck 1.0786 14.2077 1.45783
upperneck -3.52105 18.9353 -9.84308
head -0.134202 9.61638 -3.27641
rclavicle 1.32211e-014 9.31803e-016
rhumerus -33.5327 -8.10284 -89.4582
rradius 31.6789
rwrist 34.9526
rhand 26.6735 -15.6952
rfingers 7.12502
rthumb 50.693 -36.5463
lclavicle 1.32211e-014 9.31803e-016
lhumerus -41.3753 20.0167 79.4347
lradius 28.8013
lwrist -22.5456
lhand -5.97779 12.2429
lfingers 7.12502
lthumb 19.8537 41.2489
rfemur -7.04231 10.2101 23.8344
rtibia 27.6175
rfoot -22.6462 -11.3442
rtoes 0.30242
lfemur -7.59274 -4.73752 -21.1377
ltibia 31.0957
lfoot -28.7459 17.4034
ltoes -13.2296
638
root 47.0789 17.5768 12.639 190.026 85.671 187.346
lowerback -5.55814 -1.4352 3.18452
upperback -0.780268 -2.07754 -0.425007
thorax 2.18145 -1.00353 -2.37428
lowerneck 1.26139 14.4865 1.41943
upperneck -3.69832 19.2915 -9.74118
head -0.215161 9.80095 -3.25605
rclavicle 2.3033e-015 1.55301e-015
rhumerus -33.5686 -8.12321 -89.4467
rradius 31.5941
rwrist 35.0723
rhand 27.1024 -15.5293
rfingers 7.12502
rthumb 51.084 -36.1637
lclavicle 2.3033e-015 1.55301e-015
lhumerus -41.4004 20.3203 79.4274
lradius 28.9912
lwrist -22.6134
lhand -5.79797 12.2955
lfingers 7.12502
lthumb 20.0266 41.2834
rfemur -7.01392 10.1599 23.7899
rtibia 27.5918
rfoot -22.6669 -11.35
rtoes 0.339252
lfemur -7.61037 -4.62681 -21.1646
ltibia 31.1081
lfoot -28.7279 17.2618
ltoes -13.2714
639
root 47.0696 17.5761 12.6355 190.947 85.5822 188.299
lowerback -5.45634 -1.4504 3.28279
upperback -0.794348 -2.10089 -0.381345
thorax 2.10662 -1.01614 -2.38238
lowerneck 1.51135 14.8214 1.52731
upperneck -3.81193 19.7327 -9.76374
head -0.253963 10.0279 -3.29524
rclavicle 1.10689e-014 7.41715e-015
rhumerus -33.6404 -8.03594 -89.4646
rradius 31.5388
rwrist 35.0453
rhand 27.5803 -15.6246
rfingers 7.12502
rthumb 51.519 -36.0117
lclavicle 1.10689e-014 7.41715e-015
lhumerus -41.3517 20.288 79.6122
lradius 29.1286
lwrist -22.3988
lhand -5.83988 12.1128
lfingers 7.12502
lthumb 19.9863 41.105
rfemur -7.00381 9.95048 23.8538
rtibia 27.5607
rfoot -22.649 -11.1966
rtoes 0.339719
lfemur -7.63317 -4.52941 -21.0659
ltibia 31.1194
lfoot -28.664 17.1348
ltoes -13.2935
640
root 47.0597 17.5765 12.6329 191.2 85.4902 188.563
lowerback -5.36455 -1.46733 3.31738
upperback -0.824456 -2.122 -0.356691
thorax 2.02258 -1.0284 -2.37416
lowerneck 1.7752 15.1505 1.66989
upperneck -3.90841 20.1691 -9.80645
head -0.283474 10.252 -3.34614
rclavicle -1.25843e-014 1.01955e-014
rhumerus -33.7211 -8.04187 -89.4628
rradius 31.4014
rwrist 35.3456
rhand 28.3334 -15.2004
rfingers 7.12502
rthumb 52.2025 -35.185
lclavicle -1.25843e-014 1.01955e-014
lhumerus -41.3145 20.0589 79.8782
lradius 29.2546
lwrist -22.1382
lhand -5.73155 11.9166
lfingers 7.12502
lthumb 20.0904 40.8978
rfemur -7.02029 9.702 23.8641
rtibia 27.5306
rfoot -22.5705 -11.0854
rtoes 0.256801
lfemur -7.67468 -4.5024 -21.0254
ltibia 31.1248
lfoot -28.618 17.0537
ltoes -13.4523
641
root 47.0501 17.5778 12.6308 190.995 85.3989 188.389
lowerback -5.28159 -1.47145 3.32802
upperback -0.829808 -2.12536 -0.348456
thorax 1.9704 -1.03116 -2.36902
lowerneck 2.02381 15.5192 1.86138
upperneck -3.97194 20.6639 -9.88565
head -0.285998 10.5041 -3.40946
rclavicle 7.12344e-016 1.33248e-015
rhumerus -33.7897 -7.93081 -89.5456
rradius 31.1539
rwrist 35.4823
rhand 28.2415 -15.1472
rfingers 7.12502
rthumb 52.1192 -35.1818
lclavicle 7.12344e-016 1.33248e-015
lhumerus -41.2065 19.8373 80.2059
lradius 29.4314
lwrist -21.9214
lhand -5.47801 11.9877
lfingers 7.12502
lthumb 20.3341 40.9432
rfemur -7.00124 9.62143 23.8526
rtibia 27.4991
rfoot -22.5345 -11.112
rtoes 0.197348
lfemur -7.69675 -4.50836 -21.0265
ltibia 31.1322
lfoot -28.612 16.9447
ltoes -13.3221
642
root 47.0411 17.5795 12.6288 190.433 85.3002 187.866
lowerback -5.22111 -1.46611 3.33267
upperback -0.820407 -2.11636 -0.37074
thorax 1.94585 -1.02711 -2.39223
lowerneck 2.21421 15.905 1.94995
upperneck -4.00888 21.1787 -9.79518
head -0.298685 10.7617 -3.39966
rclavicle -1.37613e-014 -2.09966e-015
rhumerus -33.8267 -8.00249 -89.584
rradius 31.1208
rwrist 35.3378
rhand 29.0701 -15.1599
rfingers 7.12502
rthumb 52.869 -34.7349
lclavicle -1.37613e-014 -2.09966e-015
lhumerus -40.9768 19.5721 80.5411
lradius 29.5539
lwrist -21.6159
lhand -5.41647 12.2601
lfingers 7.12502
lthumb 20.3932 41.2093
rfemur -6.95718 9.83497 23.8499
rtibia 27.4829
rfoot -22.5688 -11.4372
rtoes 0.172333
lfemur -7.70781 -4.41375 -21.0533
ltibia 31.1294
lfoot -28.6242 16.7882
ltoes -13.3537
643
root 47.032 17.5802 12.6271 189.819 85.1991 187.259
lowerback -5.20408 -1.42589 3.36442
upperback -0.781203 -2.06529 -0.366012
thorax 1.97911 -1.00052 -2.40217
lowerneck 2.32784 16.2777 1.59677
upperneck -4.15294 21.6551 -9.59053
head -0.397689 11.0056 -3.30011
rclavicle 1.23635e-014 -4.00054e-015
rhumerus -33.8068 -7.97596 -89.6127
rradius 31.0154
rwrist 35.1099
rhand 29.5896 -15.4936
rfingers 7.12502
rthumb 53.3376 -34.7698
lclavicle 1.23635e-014 -4.00054e-015
lhumerus -40.7416 19.6094 80.7765
lradius 29.6422
lwrist -21.7801
lhand -5.09357 11.7507
lfingers 7.12502
lthumb 20.7035 40.6664
rfemur -6.9725 9.89686 23.8138
rtibia 27.4869
rfoot -22.5917 -11.5898
rtoes 0.186582
lfemur -7.74659 -4.42627 -21.0956
ltibia 31.1172
lfoot -28.6029 16.7104
ltoes -13.339
644
root 47.0235 17.58 12.6232 189.79 85.0888 187.268
lowerback -5.18783 -1.42041 3.45021
upperback -0.742933 -2.0631 -0.379824
thorax 2.00605 -0.998005 -2.46459
lowerneck 2.44652 16.6527 1.65213
upperneck -4.13281 22.1595 -9.53581
head -0.381368 11.2565 -3.28763
rclavicle 1.88892e-014 -1.49089e-016
rhumerus -33.8419 -7.96886 -89.666
rradius 30.8018
rwrist 35.8332
rhand 30.0283 -14.894
rfingers 7.12502
rthumb 53.7324 -33.9114
lclavicle 1.88892e-014 -1.49089e-016
lhumerus -40.5032 19.4456 81.0959
lradius 29.7995
lwrist -21.5053
lhand -4.80608 12.0552
lfingers 7.12502
lthumb 20.9797 40.9405
rfemur -6.94749 9.90257 23.8352
rtibia 27.4968
rfoot -22.6205 -11.735
rtoes 0.0957949
lfemur -7.73998 -4.47723 -21.0917
ltibia 31.1056
lfoot -28.5781 16.6566
ltoes -13.3411
